<svg xmlns="http://www.w3.org/2000/svg" width="26" height="34" viewBox="0 0 26 34" fill="none"><path d="M24 11H19V7C19 3.6865 16.3135 1 13 1C9.6865 1 7 3.6865 7 7V11H2C1.4475 11 1 11.4475 1 12V31C1 32.1055 1.8945 33 3 33H23C24.1055 33 25 32.1055 25 31V12C25 11.4475 24.5525 11 24 11ZM8 7C8 4.239 10.239 2 13 2C15.761 2 18 4.239 18 7V13H17V7C17 4.791 15.209 3 13 3C10.791 3 9 4.791 9 7V13H8V7ZM16 7V11H10V7C10 5.3435 11.3435 4 13 4C14.6565 4 16 5.3435 16 7ZM24 31C24 31.552 23.552 32 23 32H3C2.448 32 2 31.552 2 31V30H24V31ZM24 29H2V12.5C2 12.2235 2.2235 12 2.5 12H7V13.5C7 13.7765 7.2235 14 7.5 14H9.5C9.7765 14 10 13.7765 10 13.5V12H16V13.5C16 13.7765 16.2235 14 16.5 14H18.5C18.7765 14 19 13.7765 19 13.5V12H23.5C23.7765 12 24 12.2235 24 12.5V29Z" fill="#B92025" stroke="#B92025" stroke-width="0.5"></path><path d="M15 18C14.448 18 13.948 18.224 13.586 18.586L13 19.168L12.414 18.586C12.052 18.224 11.552 18 11 18C9.8955 18 9 18.8955 9 20C9 20.552 9.3565 21.068 9.719 21.4295L12.6465 24.3575C12.842 24.553 13.158 24.553 13.3535 24.3575L16.2735 21.437C16.6355 21.0755 17 20.552 17 20C17 18.8955 16.1045 18 15 18ZM15.578 20.719L13 23.297L10.422 20.719C10.2405 20.538 10 20.2765 10 20C10 19.448 10.448 19 11 19C11.2765 19 11.5265 19.112 11.707 19.293L12.6465 20.2285C12.842 20.424 13.158 20.424 13.3535 20.2285L14.293 19.293C14.4735 19.112 14.7235 19 15 19C15.552 19 16 19.448 16 20C16 20.2765 15.7595 20.538 15.578 20.719Z" fill="#B92025" stroke="#B92025" stroke-width="0.5"></path></svg>