<svg xmlns="http://www.w3.org/2000/svg" width="35" height="35" viewBox="0 0 35 35" fill="none"><path d="M13.9701 3.72646C14.9491 2.89215 15.4386 2.475 15.9504 2.23038C17.1342 1.66458 18.5103 1.66458 19.6941 2.23038C20.2059 2.475 20.6954 2.89215 21.6744 3.72646C22.0641 4.05852 22.2589 4.22456 22.467 4.36401C22.944 4.6837 23.4796 4.90558 24.0428 5.01678C24.2887 5.06531 24.5438 5.08568 25.0542 5.12639C26.3364 5.22871 26.9774 5.27987 27.5124 5.46879C28.7494 5.90577 29.7226 6.87884 30.1596 8.11596C30.3485 8.65085 30.3996 9.29195 30.502 10.5742C30.5426 11.0845 30.5629 11.3397 30.6115 11.5854C30.7227 12.1487 30.9446 12.6844 31.2644 13.1613C31.4038 13.3694 31.5698 13.5642 31.9019 13.9539C32.7362 14.9329 33.1534 15.4225 33.398 15.9342C33.9637 17.1179 33.9637 18.4941 33.398 19.6778C33.1534 20.1897 32.7362 20.6791 31.9019 21.6582C31.5698 22.0478 31.4038 22.2426 31.2644 22.4508C30.9446 22.9277 30.7227 23.4634 30.6115 24.0268C30.5629 24.2724 30.5426 24.5277 30.502 25.0379C30.3996 26.3202 30.3485 26.9612 30.1596 27.4961C29.7226 28.7332 28.7494 29.7063 27.5124 30.1434C26.9774 30.3323 26.3364 30.3833 25.0542 30.4857C24.5438 30.5264 24.2887 30.5469 24.0428 30.5953C23.4796 30.7066 22.944 30.9283 22.467 31.2481C22.2589 31.3875 22.0641 31.5535 21.6744 31.8857C20.6954 32.7199 20.2059 33.1371 19.6941 33.3818C18.5103 33.9474 17.1342 33.9474 15.9504 33.3818C15.4386 33.1371 14.9491 32.7199 13.9701 31.8857C13.5805 31.5535 13.3856 31.3875 13.1776 31.2481C12.7006 30.9283 12.165 30.7066 11.6016 30.5953C11.3559 30.5469 11.1007 30.5264 10.5904 30.4857C9.30819 30.3833 8.66707 30.3323 8.1322 30.1434C6.89508 29.7063 5.92199 28.7332 5.48503 27.4961C5.29611 26.9612 5.24495 26.3202 5.14263 25.0379C5.1019 24.5277 5.08155 24.2724 5.03302 24.0268C4.92182 23.4634 4.69994 22.9277 4.38025 22.4508C4.24079 22.2426 4.07476 22.0478 3.7427 21.6582C2.90839 20.6791 2.49124 20.1897 2.24661 19.6778C1.68082 18.4941 1.68082 17.1179 2.24661 15.9342C2.49124 15.4223 2.90839 14.9329 3.7427 13.9539C4.07476 13.5642 4.24079 13.3694 4.38025 13.1613C4.69994 12.6844 4.92182 12.1487 5.03302 11.5854C5.08155 11.3397 5.1019 11.0845 5.14263 10.5742C5.24495 9.29195 5.29611 8.65085 5.48503 8.11596C5.92199 6.87884 6.89508 5.90577 8.1322 5.46879C8.66707 5.27987 9.30819 5.22871 10.5904 5.12639C11.1007 5.08568 11.3559 5.06531 11.6016 5.01678C12.165 4.90558 12.7006 4.6837 13.1776 4.36401C13.3857 4.22456 13.5805 4.05852 13.9701 3.72646Z" stroke="#B92025" stroke-width="2"></path><path d="M11.7454 18.675L15.2178 22.1475L23.899 13.4663" stroke="#B92025" stroke-width="2" stroke-linecap="round" stroke-linejoin="round"></path></svg>