<svg xmlns="http://www.w3.org/2000/svg" width="28" height="24" viewBox="0 0 28 24" fill="none"><g clip-path="url(#clip0_484_3385)"><path d="M0 12.8105C1.00652 11.0876 2.01398 9.36562 3.01863 7.64275C3.45681 6.8915 3.88657 6.1357 4.32663 5.38535C4.79853 4.58129 5.54195 4.38368 6.38649 4.8317C6.68704 4.99106 6.98291 5.1577 7.28346 5.31706C8.33212 5.87253 8.48942 6.16028 8.33774 7.30947C8.71507 7.41692 9.09801 7.53439 9.48658 7.62909C9.57459 7.65004 9.70567 7.61908 9.7787 7.56353C10.4144 7.08273 11.1738 6.99258 11.9322 6.91336C12.6737 6.83595 13.419 6.72941 14.1615 6.73579C14.8179 6.74216 15.4779 6.85872 16.1259 6.98074C16.5182 7.0545 16.9161 7.18472 17.2672 7.36866C18.0809 7.79574 18.8514 7.62636 19.6623 7.28762C19.6435 7.18107 19.6211 7.06816 19.6052 6.95433C19.5209 6.35242 19.7297 5.87435 20.2681 5.56201C20.7484 5.28337 21.239 5.01747 21.7362 4.76796C22.444 4.41191 23.1809 4.61225 23.5957 5.27517C23.8784 5.72774 24.1331 6.19853 24.4018 6.6593C24.5816 6.96799 24.5732 7.26121 24.2445 7.44788C23.8878 7.65186 23.6228 7.47884 23.4374 7.16104C23.1996 6.75218 22.9562 6.34605 22.7296 5.93081C22.5788 5.65398 22.3944 5.61027 22.1229 5.76781C21.7755 5.96905 21.4263 6.17212 21.0611 6.33785C20.6641 6.51724 20.6388 6.73397 20.8467 7.08819C22.0742 9.18077 23.2811 11.2861 24.5039 13.3814C25.1518 14.4914 24.9055 14.4186 26.0562 13.8094C27.1639 13.2221 27.0178 13.3787 26.4729 12.3943C26.3034 12.0874 26.1143 11.7906 25.9467 11.4828C25.7744 11.1677 25.8166 10.8836 26.1536 10.707C26.4795 10.5367 26.7266 10.6851 26.8942 10.9665C27.2144 11.5037 27.5403 12.0392 27.8305 12.5919C28.177 13.2512 27.97 13.9524 27.3277 14.3321C26.8362 14.6226 26.3325 14.8958 25.8212 15.1516C25.1537 15.4849 24.4402 15.2946 24.0142 14.6945C23.9533 14.608 23.8934 14.5206 23.7867 14.3649C23.4571 14.5989 23.1416 14.822 22.8101 15.0569C22.9093 15.2427 22.9843 15.3711 23.0498 15.5031C23.5367 16.493 23.061 17.6394 21.9965 17.9854C21.7371 18.0701 21.6379 18.1676 21.6088 18.4426C21.5283 19.2084 21.0826 19.712 20.3411 19.9815C20.2109 20.0289 20.0433 20.1591 20.0199 20.2756C19.755 21.6133 19.1201 22.0914 17.7091 21.9839C17.6801 21.9821 17.6492 21.9921 17.5846 22.0021C17.3178 22.7361 16.8215 23.2524 15.9733 23.3626C15.1399 23.471 14.5782 22.961 13.9939 22.4939C13.5707 22.8253 13.1644 23.1267 12.7767 23.45C12.1578 23.9645 11.4734 24.1676 10.7047 23.8407C9.96034 23.5238 9.60548 22.9355 9.58957 22.1469C9.58957 22.1187 9.57178 22.0896 9.55492 22.0377C8.61863 21.7918 8.02689 21.2381 7.97164 20.2283C7.96696 20.1481 7.83682 20.0352 7.74225 20.0052C6.88835 19.7393 6.4408 19.172 6.35466 18.3078C6.34529 18.2149 6.25635 18.0883 6.17021 18.0492C4.70584 17.3854 4.39124 16.5103 5.17586 15.0724C4.87718 14.8475 4.56726 14.6144 4.23207 14.3621C4.11971 14.5087 4.04668 14.6007 3.97833 14.6963C3.55793 15.2837 2.86414 15.4858 2.21341 15.1698C1.67129 14.9067 1.12637 14.6353 0.631065 14.2993C0.367965 14.1199 0.206922 13.7976 0 13.5389C0 13.2958 0 13.0536 0 12.8105ZM13.4743 19.548C13.7982 20.0261 14.2486 20.4095 14.3085 20.8448C14.4021 21.5314 14.8591 21.8191 15.3225 22.1506C15.6793 22.4055 16.1212 22.3336 16.3618 22.0222C16.5978 21.7171 16.5622 21.3237 16.2495 21.0387C16.0463 20.853 15.8206 20.6881 15.6006 20.5206C15.301 20.2929 15.1109 20.0325 15.3637 19.6701C15.5678 19.3778 15.9021 19.3914 16.2972 19.6956C16.7363 20.0334 17.167 20.3822 17.608 20.7182C18.0294 21.0396 18.4919 21.0178 18.7644 20.6772C19.0462 20.3248 18.9638 19.9223 18.5265 19.5745C18.0809 19.2202 17.6296 18.8724 17.1783 18.5245C16.888 18.3005 16.7438 18.0374 16.9788 17.7032C17.1829 17.4127 17.4891 17.4145 17.8683 17.7013C18.3224 18.0455 18.7662 18.4025 19.2203 18.7467C19.6632 19.0827 20.0789 19.0682 20.371 18.7176C20.6529 18.3788 20.5723 17.9581 20.1454 17.6139C19.7615 17.3052 19.3664 17.0102 18.9797 16.7051C18.5705 16.3819 18.4891 16.105 18.7101 15.8255C18.9291 15.5487 19.2465 15.5578 19.6454 15.861C20.0377 16.1597 20.4207 16.4684 20.813 16.7671C21.2624 17.1094 21.7268 17.0912 22.0039 16.7297C22.2605 16.3955 22.1659 15.9511 21.7352 15.6261C19.9769 14.3002 18.2082 12.988 16.4517 11.6594C15.4471 10.9 14.3535 10.5685 13.0913 10.8809C12.8675 10.9364 12.6297 10.9446 12.3975 10.9583C10.8592 11.053 9.82177 10.3609 9.3583 8.95403C9.31804 8.83292 9.20194 8.6854 9.08678 8.64624C8.64952 8.49781 8.19823 8.38854 7.71697 8.25468C6.71607 9.98302 5.72546 11.6931 4.74235 13.3905C5.20395 13.7411 5.62715 14.0625 6.07283 14.4013C6.55315 14.0298 7.02879 13.64 7.5269 13.2812C8.43418 12.6274 9.68226 12.8824 10.23 13.8203C10.3124 13.9624 10.3733 14.1163 10.4407 14.2583C12.5277 14.0452 13.3188 15.0178 12.7159 17.0229C13.7402 17.7842 13.8778 18.2914 13.4724 19.549L13.4743 19.548ZM23.2511 13.3878C22.3672 11.8616 21.4637 10.3409 20.607 8.79649C20.3739 8.37579 20.1585 8.21462 19.6829 8.42041C18.7175 8.83929 17.7588 8.78283 16.8037 8.34028C16.3993 8.15269 15.962 8.02703 15.5304 7.90137C15.2654 7.82396 14.9798 7.74383 14.7111 7.76386C13.5651 7.84855 12.4191 7.94872 11.2796 8.09441C10.9865 8.13175 10.4772 8.37215 10.4847 8.49508C10.5053 8.83474 10.6663 9.25089 10.9219 9.47034C11.1991 9.70892 11.6373 9.82002 12.0211 9.87465C12.3797 9.92474 12.7655 9.85735 13.1288 9.78906C14.4021 9.54957 15.5735 9.77084 16.6324 10.4975C17.4966 11.0903 18.3561 11.6913 19.1979 12.3133C20.1257 12.998 21.0311 13.711 21.9262 14.3967C22.3682 14.0598 22.7811 13.7457 23.2502 13.3878H23.2511ZM7.33871 6.66658C7.23946 6.57825 7.15426 6.47262 7.04377 6.40979C6.65521 6.18851 6.25447 5.98818 5.86591 5.76599C5.59157 5.60936 5.41649 5.66582 5.26106 5.93445C3.91466 8.27016 2.56265 10.6022 1.20595 12.9325C1.04585 13.2075 1.10858 13.3759 1.38666 13.5162C1.7593 13.7038 2.13195 13.8923 2.484 14.1126C2.81451 14.3193 3.00084 14.241 3.18435 13.9205C4.50453 11.623 5.83782 9.33193 7.16455 7.03811C7.22448 6.9343 7.26568 6.82138 7.33683 6.66658H7.33871ZM11.9949 15.9484C11.8039 15.7126 11.6841 15.4221 11.4856 15.3574C11.2459 15.2791 10.8686 15.2964 10.6757 15.4367C9.69256 16.1478 8.74409 16.9064 7.79375 17.6613C7.41736 17.9609 7.35837 18.3797 7.61023 18.7003C7.88176 19.0472 8.31714 19.0955 8.71881 18.7886C9.67103 18.061 10.6176 17.3262 11.5502 16.5749C11.7253 16.4338 11.8217 16.1988 11.9949 15.9493V15.9484ZM12.714 18.6092C12.5192 18.3779 12.3919 18.0829 12.1962 18.0301C11.9369 17.9599 11.5605 17.99 11.3461 18.1348C10.671 18.591 10.0427 19.1155 9.40793 19.6264C9.02498 19.9341 8.96599 20.3339 9.22441 20.6672C9.4847 21.0032 9.94817 21.0506 10.3414 20.7528C10.9921 20.2601 11.6391 19.763 12.2664 19.243C12.4406 19.0991 12.537 18.866 12.714 18.6092ZM6.4848 17.0676C6.70483 17.0011 6.84434 16.9938 6.93423 16.9255C7.69263 16.3482 8.45946 15.78 9.18415 15.1644C9.46972 14.9212 9.44725 14.5543 9.20381 14.2565C8.9585 13.9569 8.59709 13.8622 8.28999 14.0817C7.51567 14.6371 6.75914 15.2208 6.04568 15.8473C5.89306 15.9812 5.85842 16.3764 5.93894 16.5895C6.01759 16.798 6.3144 16.9282 6.4848 17.0685V17.0676ZM11.3255 22.9546C11.524 22.9137 11.6167 22.9209 11.671 22.8791C12.1822 22.492 12.7205 22.1296 13.1812 21.6907C13.4293 21.454 13.3657 21.0852 13.1147 20.8229C12.8675 20.5652 12.5361 20.475 12.2309 20.6827C11.7627 21.0014 11.2927 21.3365 10.9032 21.7381C10.7478 21.8992 10.7103 22.2881 10.7927 22.5139C10.8667 22.7179 11.1766 22.8408 11.3245 22.9537L11.3255 22.9546Z" fill="#B92025"></path><path d="M13.4482 1.85857C13.4482 1.45062 13.4482 1.04358 13.4482 0.635625C13.4482 0.267739 13.6046 -0.00271132 14.0062 2.05107e-05C14.3808 0.00275234 14.5437 0.259544 14.5446 0.608307C14.5474 1.45426 14.5474 2.29931 14.5446 3.14526C14.5437 3.49403 14.3826 3.75355 14.01 3.75901C13.6102 3.76448 13.4482 3.49585 13.4473 3.12705C13.4473 2.70453 13.4473 2.2811 13.4473 1.85857H13.4482Z" fill="#B92025"></path><path d="M10.2195 4.8863C10.1427 4.82437 9.95547 4.73149 9.85435 4.58306C9.38433 3.88827 8.93397 3.18073 8.48454 2.47318C8.29916 2.18179 8.27949 1.87491 8.60252 1.67549C8.9143 1.48244 9.198 1.58625 9.39463 1.8913C9.85809 2.60795 10.3309 3.32005 10.7785 4.0458C11.0294 4.45285 10.7803 4.89904 10.2186 4.8863H10.2195Z" fill="#B92025"></path><path d="M18.9936 1.58899C19.5226 1.59536 19.7848 1.99694 19.561 2.3712C19.0919 3.15433 18.5976 3.92652 18.0592 4.66502C17.959 4.80344 17.5732 4.85898 17.3794 4.79069C17.0864 4.68688 17.0068 4.38365 17.1819 4.10409C17.6584 3.34191 18.1444 2.5852 18.6472 1.83941C18.7371 1.70555 18.9262 1.63634 18.9936 1.58899Z" fill="#B92025"></path><path d="M24.562 9.00682C24.7577 8.85839 24.9356 8.62801 25.1547 8.57974C25.4627 8.51236 25.6753 8.73091 25.7165 9.04598C25.7549 9.34283 25.4843 9.66337 25.1959 9.59963C24.9702 9.54954 24.7783 9.35103 24.5714 9.21808C24.5686 9.14796 24.5648 9.07785 24.562 9.00682Z" fill="#B92025"></path></g><defs><clipPath id="clip0_484_3385"><rect width="28" height="24" fill="white"></rect></clipPath></defs></svg>