<svg xmlns="http://www.w3.org/2000/svg" width="27" height="24" viewBox="0 0 27 24" fill="none"><g clip-path="url(#clip0_484_3403)"><path d="M0 23.4132C0.217646 23.3512 0.43353 23.2476 0.65382 23.2352C1.13581 23.2078 1.62045 23.2264 2.15443 23.2264C2.16325 23.0432 2.17823 22.8874 2.17823 22.7316C2.17999 21.5066 2.17646 20.2825 2.18087 19.0575C2.18351 18.3246 2.50073 17.9998 3.22416 17.9945C4.04628 17.9874 4.86929 17.9874 5.69141 17.9945C6.40691 18.0007 6.74175 18.3335 6.74616 19.0566C6.75409 20.2666 6.7488 21.4765 6.7488 22.6865C6.7488 22.8458 6.7488 23.006 6.7488 23.1963H8.01326C8.01326 22.536 8.01503 21.8916 8.01326 21.2473C8.01238 20.9676 8.02031 20.6719 8.38599 20.6649C8.77723 20.6569 8.79573 20.9649 8.79573 21.2614C8.79485 21.8943 8.79573 22.5272 8.79573 23.1936H11.7829C11.7934 23.0547 11.8111 22.9272 11.8111 22.7989C11.8128 20.6737 11.8022 18.5494 11.8216 16.4243C11.8252 16.0268 11.7027 15.9144 11.3211 15.9304C10.647 15.9578 9.96944 15.964 9.29535 15.9286C8.87063 15.9065 8.77899 16.0684 8.78868 16.4605C8.81336 17.4191 8.81248 18.3795 8.78163 19.3372C8.77635 19.5107 8.60276 19.7063 8.45649 19.8311C8.40979 19.8709 8.17892 19.7355 8.06966 19.6381C8.0115 19.5859 8.01943 19.4443 8.01855 19.3434C8.01591 18.2662 8.00974 17.189 8.01943 16.1118C8.02472 15.5259 8.37366 15.1745 8.95346 15.1665C9.80466 15.1541 10.6567 15.1594 11.5088 15.163C12.2605 15.1656 12.5865 15.486 12.5882 16.2402C12.5926 18.3795 12.59 20.5197 12.59 22.659C12.59 22.8316 12.59 23.0033 12.59 23.2016H13.8263C13.8351 23.0308 13.8501 22.8608 13.8501 22.6918C13.8518 19.6523 13.8501 16.6128 13.8509 13.5724C13.8509 12.6005 14.1215 12.3244 15.0713 12.3235C15.7763 12.3235 16.4812 12.3235 17.1861 12.3235C18.1519 12.3235 18.4242 12.5935 18.4242 13.5503C18.4242 16.5898 18.4242 19.6293 18.4242 22.6697V23.191H19.6595C19.6692 23.0095 19.6869 22.8254 19.6869 22.6404C19.6886 18.6857 19.6877 14.731 19.6886 10.7772C19.6886 9.75577 19.9556 9.48404 20.9584 9.48315C21.7223 9.48315 22.4854 9.47519 23.2494 9.4867C23.9261 9.49643 24.2513 9.82393 24.2548 10.4984C24.2618 11.7234 24.2566 12.9475 24.2574 14.1725C24.2574 14.454 24.2407 14.7443 23.8706 14.7381C23.4988 14.7319 23.4988 14.4319 23.4988 14.1566C23.4988 13.0201 23.482 11.8836 23.5076 10.748C23.5164 10.3453 23.3772 10.2426 23.0009 10.2559C22.2819 10.2815 21.562 10.2683 20.8421 10.2612C20.598 10.2585 20.4605 10.3143 20.4614 10.6028C20.4685 14.7487 20.4676 18.8955 20.4711 23.0414C20.4711 23.083 20.4922 23.1246 20.5125 23.1972H23.4988C23.4988 23.0175 23.4988 22.8458 23.4988 22.6741C23.4988 20.5489 23.4988 18.4246 23.4988 16.2995C23.4988 16.1525 23.4626 15.9799 23.5261 15.864C23.5983 15.7321 23.764 15.5675 23.8856 15.5701C24.0081 15.5728 24.1579 15.7463 24.2336 15.8799C24.2918 15.9817 24.2557 16.1392 24.2557 16.272C24.2557 18.3972 24.2557 20.5215 24.2557 22.6466V23.2299C24.7958 23.2299 25.2902 23.2113 25.7818 23.2388C26.0021 23.2512 26.218 23.3547 26.4357 23.4167V23.7707C26.196 23.8478 25.9563 23.9911 25.7158 23.9929C22.9145 24.0088 20.1125 24.0026 17.3104 24.0026C11.7952 24.0026 6.27914 24.0053 0.763965 23.9929C0.50931 23.9929 0.254655 23.8478 0 23.7707C0 23.653 0 23.5344 0 23.4167L0 23.4132ZM17.5976 23.2016C17.6197 23.1184 17.6346 23.0892 17.6346 23.0609C17.6373 19.8488 17.6373 16.6376 17.6452 13.4255C17.6452 13.1378 17.513 13.0812 17.2681 13.0838C16.5499 13.0918 15.83 13.1059 15.1128 13.0785C14.7251 13.0635 14.6149 13.1883 14.6176 13.5777C14.6325 16.642 14.6255 19.7063 14.6272 22.7714C14.6272 22.9122 14.644 23.0529 14.6537 23.2007H17.5985L17.5976 23.2016ZM5.91258 23.2007C5.93637 23.1379 5.96457 23.0972 5.96457 23.0573C5.96809 21.7305 5.96633 20.4038 5.97338 19.077C5.97514 18.7999 5.81741 18.7725 5.60329 18.7742C4.85519 18.7787 4.1062 18.7893 3.35898 18.7698C3.02678 18.761 2.92897 18.8805 2.93338 19.2053C2.94836 20.4285 2.93779 21.6527 2.94131 22.8759C2.94131 22.9865 2.97127 23.0963 2.98625 23.2016H5.91258V23.2007Z" fill="#B92025"></path><path d="M4.12275 12.5952C5.1352 12.4518 6.15558 12.3483 7.15922 12.1589C11.4196 11.3561 15.1936 9.58318 18.2424 6.41799C18.7817 5.85771 19.2628 5.2399 19.7572 4.63625C20.1087 4.20697 20.1969 4.18395 20.6595 4.49994C20.8621 4.63802 21.0674 4.77079 21.3644 4.96817C21.2252 3.55817 21.0965 2.24908 20.9599 0.868297C19.6285 1.21526 18.3447 1.54984 16.9692 1.9092C17.2908 2.13756 17.5358 2.31635 17.786 2.48806C18.0495 2.66863 18.1376 2.90319 17.9349 3.16341C17.2564 4.03083 16.5744 4.89559 15.8607 5.73291C15.7743 5.83381 15.4298 5.83735 15.3003 5.74796C15.0835 5.59749 15.1795 5.36913 15.347 5.17794C15.8413 4.61412 16.3277 4.0441 16.8106 3.46966C16.9225 3.33601 17.0079 3.18023 17.1357 2.98904C16.7401 2.70934 16.3471 2.45797 15.9867 2.165C15.8466 2.0517 15.6836 1.82865 15.7073 1.68703C15.732 1.54541 15.9611 1.37901 16.1303 1.3321C17.7437 0.89131 19.3633 0.470879 20.9829 0.0522174C21.5019 -0.0823207 21.6481 0.0185829 21.7045 0.558505C21.879 2.23049 22.0482 3.90248 22.198 5.57713C22.2138 5.75238 22.1345 6.03031 22.0112 6.09846C21.8825 6.16927 21.6199 6.08873 21.4631 5.99491C21.0754 5.763 20.7141 5.48596 20.3713 5.24698C19.5985 6.07014 18.8927 6.90304 18.1041 7.64654C15.0112 10.5586 11.2927 12.1996 7.16187 12.9573C6.25427 13.1237 5.3317 13.2201 4.41265 13.3122C3.75707 13.3786 3.3764 13.1068 3.29005 12.5917C3.20987 12.1137 3.49712 11.7446 4.09719 11.5552C7.0385 10.6267 9.83618 9.38845 12.3854 7.62618C12.9167 7.25886 13.419 6.84905 13.9353 6.45959C14.175 6.27903 14.4244 5.96835 14.7134 6.34099C14.9777 6.68087 14.6597 6.86763 14.4358 7.05262C12.0523 9.02201 9.363 10.4471 6.49218 11.5446C5.82074 11.8013 5.1352 12.0208 4.45671 12.2589C4.32894 12.304 4.20381 12.3554 4.07781 12.4041C4.09279 12.4687 4.10865 12.5324 4.12363 12.597L4.12275 12.5952Z" fill="#B92025"></path></g><defs><clipPath id="clip0_484_3403"><rect width="26.4348" height="24" fill="white"></rect></clipPath></defs></svg>