<svg xmlns="http://www.w3.org/2000/svg" width="24" height="24" viewBox="0 0 24 24" fill="none"><g clip-path="url(#clip0_484_3419)"><path d="M11.5242 8.16204C12.1715 8.28694 12.737 8.88134 12.783 9.5205C12.8196 10.0261 12.8433 10.541 12.7884 11.0426C12.76 11.3017 12.5765 11.5602 12.414 11.7839C12.2054 12.0704 12.1749 12.1486 12.3537 12.4525C12.6848 13.0141 12.6537 13.4857 12.2054 13.9585C11.9894 14.1863 11.7212 14.3699 11.4639 14.5556C11.2167 14.7339 11.1388 14.9389 11.2736 15.1453C11.4056 15.3477 11.6359 15.3777 11.8959 15.2215C12.0395 15.1353 12.1783 15.0418 12.3225 14.949C12.4641 15.1159 12.6022 15.2789 12.7505 15.4539C12.4979 15.9448 12.5392 16.4223 12.9009 16.8851C12.5941 17.2859 12.4851 17.7273 12.7099 18.2362C11.7165 18.3778 10.7535 18.5835 9.80345 18.1521C9.61249 18.0653 9.45674 17.9831 9.58134 17.7293C9.62197 17.6465 9.6003 17.5323 9.6003 17.4328C9.6003 15.866 9.6003 14.2991 9.6003 12.733C9.6003 12.7163 9.60504 12.6982 9.59962 12.6829C9.45064 12.2675 9.69916 12.0651 10.012 11.8601C10.2768 11.6864 10.5152 11.4673 10.7427 11.2449C11.2716 10.7273 11.5262 10.0922 11.5248 9.35687C11.5242 8.96015 11.5248 8.56277 11.5248 8.16138L11.5242 8.16204Z" fill="#B92025"></path><path d="M22.4572 15.5554C22.5561 15.4953 22.6116 15.4572 22.6698 15.4265C22.8757 15.317 23.0815 15.3571 23.2102 15.528C23.3429 15.7043 23.3192 15.9334 23.1256 16.0824C22.8533 16.2921 22.5662 16.4844 22.2852 16.6828C22.1342 16.7896 21.9852 16.8985 21.8301 17C21.5288 17.197 21.2349 17.0895 21.157 16.7429C21.0439 16.24 20.941 15.7351 20.8421 15.2295C20.7934 14.9824 20.9024 14.8067 21.1218 14.7433C21.3405 14.6805 21.5254 14.78 21.6175 15.0111C21.6385 15.0639 21.6568 15.118 21.6886 15.2041C21.9452 14.4053 22.0861 13.6206 22.1152 12.8238C22.2317 9.63005 21.1191 6.9245 18.7395 4.74523C17.7705 3.85763 16.6511 3.20111 15.4105 2.74695C15.3238 2.7149 15.2358 2.68618 15.1505 2.65078C14.8972 2.54659 14.7936 2.33888 14.8796 2.11381C14.9575 1.91011 15.1816 1.81727 15.4254 1.89876C16.3985 2.22267 17.31 2.66948 18.1476 3.25387C20.729 5.05379 22.292 7.4962 22.8114 10.5684C23.0843 12.182 22.9698 13.7856 22.5039 15.3604C22.4904 15.4065 22.4809 15.4546 22.4572 15.5554Z" fill="#B92025"></path><path d="M6.89571 2.42503C6.44878 2.31416 6.2998 2.15921 6.356 1.88272C6.4095 1.62024 6.64313 1.53342 7.05959 1.61623C7.47267 1.69838 7.88574 1.77786 8.2995 1.856C8.75456 1.94216 8.87578 2.23535 8.60897 2.61404C8.34419 2.99005 8.07806 3.36539 7.81058 3.7394C7.62639 3.99653 7.42526 4.06265 7.21331 3.94177C6.9939 3.81687 6.9614 3.61317 7.11241 3.31397C7.1185 3.30261 7.11173 3.28458 7.10699 3.19308C6.56051 3.55373 6.02351 3.86296 5.53662 4.2363C3.38388 5.88928 2.08235 8.05653 1.65031 10.71C1.33542 12.6448 1.58733 14.5229 2.37827 16.3255C2.40807 16.3942 2.44193 16.4617 2.46834 16.5312C2.56111 16.7743 2.48865 16.9913 2.28482 17.0862C2.06474 17.1883 1.83382 17.1082 1.72683 16.8557C1.53587 16.4036 1.3361 15.9521 1.19321 15.4846C-0.366999 10.3968 1.91915 5.02506 6.69053 2.54458C6.75554 2.51052 6.81716 2.47044 6.89504 2.42503H6.89571Z" fill="#B92025"></path><path d="M6.89644 22.1206C6.93978 22.2248 6.96687 22.2755 6.98312 22.329C7.0461 22.5427 6.97635 22.7117 6.77726 22.8092C6.58968 22.902 6.38721 22.876 6.2836 22.697C5.99174 22.1921 5.71274 21.6785 5.45744 21.1542C5.35113 20.9358 5.51568 20.6747 5.76353 20.6499C6.33439 20.5932 6.90728 20.5531 7.48017 20.5304C7.69754 20.5217 7.84449 20.6673 7.86548 20.8877C7.88647 21.1074 7.77068 21.2524 7.55601 21.3125C7.47001 21.3365 7.37995 21.3452 7.29191 21.3606C7.28446 21.3839 7.27702 21.4066 7.26957 21.43C7.85126 21.6371 8.42144 21.8855 9.01668 22.0438C11.934 22.8205 14.6948 22.4405 17.2843 20.8944C17.3703 20.843 17.4563 20.7788 17.5511 20.7575C17.7631 20.7094 17.9378 20.7768 18.0272 20.9866C18.1159 21.1956 18.0482 21.3753 17.8599 21.4814C17.3703 21.7579 16.8882 22.0572 16.3722 22.2776C13.287 23.5973 10.2038 23.5719 7.13278 22.2168C7.07251 22.1901 7.01088 22.166 6.89644 22.1193V22.1206Z" fill="#B92025"></path><path d="M8.79591 15.1006C8.79591 15.8586 8.79659 16.616 8.79591 17.374C8.79524 17.8095 8.66793 17.9324 8.21828 17.9337C7.83839 17.935 7.45849 17.9384 7.0786 17.9324C6.72376 17.927 6.56936 17.7754 6.56868 17.4241C6.56597 15.8666 6.56597 14.3098 6.56868 12.7523C6.56868 12.3964 6.72037 12.2534 7.07792 12.2514C7.48355 12.2501 7.8885 12.2501 8.29413 12.2514C8.65912 12.2528 8.79253 12.3837 8.79388 12.7517C8.79659 13.5344 8.79456 14.3172 8.79456 15.0999H8.79659L8.79591 15.1006Z" fill="#B92025"></path><path d="M11.8175 6.19582C11.0151 6.19582 10.2126 6.19716 9.41015 6.19582C8.98082 6.19449 8.81153 5.96341 8.9429 5.56469C9.34175 4.3565 10.5282 3.51031 11.8243 3.50897C13.1326 3.50764 14.3204 4.35984 14.7165 5.58339C14.8364 5.95405 14.6677 6.19315 14.275 6.19516C13.4556 6.1985 12.6362 6.19649 11.8168 6.19649L11.8175 6.19582Z" fill="#B92025"></path><path d="M2.93086 23.9993C2.12028 23.9993 1.31038 24 0.499802 23.9993C0.0718272 23.9986 -0.0886635 23.7709 0.0474489 23.3648C0.454432 22.1526 1.63881 21.3138 2.9329 21.3205C4.22833 21.3272 5.39511 22.1553 5.80006 23.3548C5.94294 23.7782 5.78516 23.9986 5.33619 23.9993C4.53442 24 3.73264 23.9993 2.93019 23.9993H2.93086Z" fill="#B92025"></path><path d="M20.7202 23.9993C19.9096 23.9993 19.0997 24.0007 18.2891 23.9993C17.8882 23.9987 17.7203 23.7723 17.8368 23.3983C18.2112 22.1914 19.4173 21.3238 20.7249 21.3205C22.0265 21.3172 23.2366 22.1834 23.6185 23.3909C23.7377 23.7676 23.5718 23.998 23.1763 23.9993C22.3576 24.0013 21.5389 23.9993 20.7202 23.9993Z" fill="#B92025"></path><path d="M13.3613 1.50474C13.3667 2.34826 12.6719 3.03951 11.8234 3.03617C10.9817 3.03283 10.2977 2.35628 10.293 1.52211C10.2883 0.682591 10.962 0.00469985 11.8058 2.4738e-05C12.6746 -0.00465037 13.3559 0.653872 13.3613 1.50474Z" fill="#B92025"></path><path d="M1.38624 19.3162C1.38895 18.4887 2.0817 17.8061 2.92072 17.8048C3.7699 17.8028 4.47348 18.4967 4.46874 19.3316C4.46468 20.1557 3.76719 20.8423 2.93088 20.845C2.08305 20.8476 1.38353 20.1551 1.38624 19.3162Z" fill="#B92025"></path><path d="M22.269 19.3189C22.2711 20.1571 21.5688 20.849 20.721 20.8443C19.8854 20.8403 19.1892 20.1524 19.1865 19.3276C19.1838 18.4927 19.8881 17.8008 20.7373 17.8042C21.5756 17.8075 22.2677 18.4914 22.2697 19.3189H22.269Z" fill="#B92025"></path><path d="M14.8585 14.8488C14.419 14.8488 13.9795 14.8502 13.54 14.8488C13.2326 14.8475 13.0491 14.6905 13.0457 14.4347C13.0423 14.1803 13.2312 14.006 13.5285 14.0053C14.4156 14.0026 15.3027 14.0026 16.1905 14.0053C16.4797 14.006 16.6848 14.193 16.6801 14.4354C16.6754 14.6785 16.4729 14.8475 16.177 14.8488C15.7375 14.8508 15.298 14.8488 14.8585 14.8488Z" fill="#B92025"></path><path d="M14.8558 13.2085C14.5267 13.2085 14.1976 13.2132 13.8685 13.2065C13.5712 13.2005 13.4033 13.0476 13.3985 12.7965C13.3938 12.542 13.578 12.3617 13.8746 12.359C14.5328 12.353 15.191 12.3523 15.8492 12.359C16.137 12.3623 16.3388 12.56 16.328 12.8018C16.3172 13.0376 16.1275 13.2019 15.8431 13.2072C15.514 13.2132 15.1849 13.2085 14.8558 13.2085Z" fill="#B92025"></path><path d="M14.7367 15.6509C15.0401 15.6509 15.3435 15.6469 15.6462 15.6523C15.9116 15.6569 16.0829 15.8232 16.085 16.065C16.087 16.3014 15.913 16.4904 15.6563 16.4938C15.0502 16.5018 14.4435 16.5011 13.8367 16.4938C13.5659 16.4904 13.3885 16.2988 13.3986 16.0503C13.4081 15.8105 13.5794 15.6563 13.8516 15.6523C14.1462 15.6482 14.4415 15.6516 14.736 15.6516L14.7367 15.6509Z" fill="#B92025"></path><path d="M14.4719 18.1401C14.2775 18.1401 14.0832 18.1441 13.8895 18.1394C13.5888 18.1321 13.4013 17.9665 13.3999 17.714C13.3986 17.4515 13.5719 17.2946 13.8821 17.2912C14.2958 17.2872 14.7096 17.2859 15.1233 17.2912C15.4138 17.2953 15.5858 17.4549 15.5879 17.7067C15.5892 17.9524 15.4111 18.1268 15.1308 18.1374C14.9114 18.1461 14.692 18.1394 14.4726 18.1394L14.4719 18.1401Z" fill="#B92025"></path><path d="M6.53751 6.47166C6.53751 6.64597 6.54699 6.82162 6.53548 6.99527C6.51787 7.25641 6.35671 7.41135 6.12443 7.41202C5.89149 7.41202 5.72151 7.25774 5.71203 6.99794C5.69917 6.6413 5.69985 6.28332 5.71203 5.92601C5.72084 5.67489 5.90097 5.50525 6.12173 5.50458C6.34249 5.50458 6.51787 5.67288 6.5348 5.924C6.54699 6.10633 6.53751 6.28933 6.53751 6.47233V6.47166Z" fill="#B92025"></path><path d="M6.53746 9.15851C6.53746 9.33282 6.54695 9.5078 6.53476 9.68145C6.51715 9.93858 6.35124 10.0975 6.12168 10.0975C5.89279 10.0975 5.72011 9.93725 5.71131 9.68012C5.69844 9.32347 5.69844 8.96549 5.71131 8.60885C5.72079 8.35038 5.89008 8.19543 6.12303 8.19543C6.3553 8.19543 6.51783 8.35038 6.53476 8.61018C6.54695 8.79184 6.53679 8.97551 6.53679 9.15851H6.53746Z" fill="#B92025"></path><path d="M19.0753 9.38826C19.0753 9.57126 19.0814 9.75426 19.0733 9.93659C19.0625 10.1884 18.8959 10.35 18.6616 10.3487C18.4279 10.3467 18.2681 10.187 18.2634 9.92924C18.2566 9.57193 18.2559 9.21462 18.2634 8.85797C18.2688 8.59817 18.4279 8.44656 18.6697 8.44857C18.906 8.45124 19.0604 8.61019 19.0746 8.86599C19.0746 8.874 19.0746 8.88268 19.0746 8.8907C19.0746 9.057 19.0746 9.2233 19.0746 9.38893L19.0753 9.38826Z" fill="#B92025"></path><path d="M17.3262 10.3427C17.5117 10.3427 17.6973 10.3353 17.8821 10.3447C18.1124 10.3567 18.2613 10.5103 18.2674 10.7234C18.2735 10.9371 18.1354 11.1254 17.9139 11.1355C17.5103 11.1535 17.1054 11.1542 16.7018 11.1368C16.4695 11.1268 16.3266 10.9298 16.3422 10.7053C16.3564 10.4956 16.5095 10.3527 16.7451 10.3434C16.9388 10.3353 17.1325 10.342 17.3262 10.342C17.3262 10.342 17.3262 10.3427 17.3262 10.3434V10.3427Z" fill="#B92025"></path><path d="M7.47333 8.20015C7.28778 8.20015 7.10223 8.20616 6.91737 8.19882C6.68035 8.18947 6.51377 8.02317 6.51174 7.80678C6.50971 7.59506 6.67968 7.41073 6.91059 7.40472C7.28913 7.39537 7.66903 7.39537 8.04757 7.40472C8.28391 7.41006 8.44711 7.5817 8.44914 7.8001C8.45117 8.02918 8.28323 8.19281 8.02929 8.20015C7.84442 8.2055 7.65887 8.20149 7.47333 8.20149C7.47333 8.20149 7.47333 8.20149 7.47333 8.20082V8.20015Z" fill="#B92025"></path><path d="M4.77417 7.40204C4.95972 7.40204 5.14527 7.3947 5.33013 7.40405C5.56173 7.4154 5.73373 7.59172 5.73441 7.8021C5.73441 8.01782 5.56782 8.1928 5.33217 8.19748C4.95295 8.20549 4.57373 8.20549 4.19519 8.19748C3.95953 8.1928 3.79565 8.02183 3.79565 7.80277C3.79565 7.58571 3.95885 7.41406 4.19383 7.40271C4.38751 7.39403 4.58118 7.40071 4.77485 7.40071L4.77417 7.40204Z" fill="#B92025"></path><path d="M20.0403 10.342C20.2258 10.342 20.4114 10.3346 20.5963 10.344C20.8251 10.3547 20.9836 10.5076 20.9978 10.714C21.012 10.9197 20.8461 11.1287 20.6206 11.1374C20.2252 11.1528 19.8283 11.1534 19.4335 11.1374C19.2013 11.1281 19.0503 10.933 19.0625 10.7133C19.0746 10.5023 19.227 10.3593 19.4593 10.3413C19.4762 10.34 19.4931 10.3393 19.5101 10.3393C19.6868 10.3393 19.8642 10.3393 20.041 10.3393C20.041 10.3393 20.041 10.3406 20.041 10.3413L20.0403 10.342Z" fill="#B92025"></path><path d="M19.0747 12.0811C19.0747 12.2641 19.0815 12.4471 19.0727 12.6294C19.0612 12.8685 18.8709 13.0482 18.6522 13.0402C18.4341 13.0322 18.2696 12.8685 18.2641 12.6294C18.256 12.2641 18.2567 11.8981 18.2641 11.5328C18.2689 11.2944 18.4341 11.1307 18.6528 11.1241C18.877 11.1167 19.0612 11.291 19.0727 11.5328C19.0815 11.7151 19.074 11.8981 19.074 12.0811H19.0747Z" fill="#B92025"></path></g><defs><clipPath id="clip0_484_3419"><rect width="23.6571" height="24" fill="white"></rect></clipPath></defs></svg>