<svg xmlns="http://www.w3.org/2000/svg" width="20" height="24" viewBox="0 0 20 24" fill="none"><g clip-path="url(#clip0_484_3391)"><path d="M8.57763 24C7.84736 23.6848 8.01478 23.0024 7.96615 22.3768C7.69988 22.3768 7.4623 22.3632 7.22712 22.3792C6.00815 22.4608 5.84152 21.616 6.01452 20.6792C6.04801 20.4984 6.06475 20.2952 6.01532 20.1232C5.83515 19.4912 5.97307 18.9496 6.44025 18.5384C6.50961 18.4776 6.5407 18.3696 6.58056 18.2792C6.59491 18.2456 6.58455 18.2 6.58375 18.16C6.55026 16.6536 6.76631 16.2712 5.14952 15.032C2.78015 13.216 1.98291 10.6408 2.76659 7.74719C3.55266 4.84239 5.55611 3.14559 8.50588 2.58639C8.74744 2.54079 8.98821 2.55199 9.04162 2.84479C9.10062 3.16879 8.85108 3.24159 8.59995 3.28399C6.51439 3.64159 4.94304 4.73919 3.93932 6.60879C2.41262 9.45359 3.29117 13.0384 5.97466 14.816C6.90105 15.4296 7.34511 16.224 7.2893 17.324C7.27176 17.6672 7.28691 18.012 7.28691 18.412H11.7825C11.7825 17.988 11.7913 17.5944 11.7809 17.2C11.7546 16.2112 12.1476 15.4512 12.972 14.9032C14.525 13.8696 15.4697 12.432 15.7854 10.5832C15.7966 10.5176 15.7926 10.4296 15.8325 10.392C15.9544 10.2792 16.0947 10.1864 16.2287 10.0864C16.3196 10.2264 16.5133 10.3944 16.4846 10.5024C16.2821 11.2704 16.1059 12.0592 15.783 12.7784C15.2879 13.8784 14.4811 14.7568 13.4639 15.4104C12.7535 15.8672 12.4195 16.48 12.4833 17.3216C12.4984 17.5208 12.4992 17.7224 12.4825 17.9208C12.4562 18.2416 12.5295 18.468 12.8054 18.7008C13.247 19.0736 13.1195 19.6168 13.0501 20.1224C13.0246 20.3048 13.0485 20.4944 13.0501 20.6816C13.0549 21.012 13.1059 21.3496 13.0549 21.6712C12.9871 22.104 12.6411 22.3504 12.1588 22.372C11.8168 22.3872 11.4732 22.3752 11.1009 22.3752C11.0499 23.0016 11.2229 23.6856 10.491 24.0008H8.57683L8.57763 24ZM9.55424 20.7464C8.74505 20.7464 7.93586 20.7568 7.12666 20.7416C6.78704 20.7352 6.65311 20.8464 6.65949 21.2016C6.66507 21.5304 6.7432 21.684 7.10833 21.6808C8.72671 21.6664 10.3451 21.6664 11.9635 21.6808C12.3294 21.684 12.4051 21.5288 12.4107 21.2008C12.4171 20.844 12.2808 20.7352 11.942 20.7416C11.1463 20.7568 10.3499 20.7464 9.55424 20.7464ZM9.57656 19.1208C8.75382 19.1208 7.93107 19.1304 7.10913 19.116C6.78704 19.1104 6.6547 19.2152 6.66028 19.552C6.66586 19.86 6.70094 20.0576 7.08441 20.0552C8.71635 20.0424 10.3483 20.0424 11.9802 20.0552C12.3597 20.0584 12.4051 19.8688 12.4091 19.5568C12.4131 19.2248 12.2911 19.1104 11.9651 19.1168C11.1694 19.132 10.373 19.1216 9.57736 19.1216L9.57656 19.1208ZM10.3307 22.4048H8.7291C8.57125 23.2568 8.59995 23.2928 9.40835 23.2928C9.48807 23.2928 9.567 23.2928 9.64672 23.2928C10.1888 23.2928 10.432 23.0211 10.3762 22.4776C10.3754 22.4656 10.3626 22.4552 10.3307 22.4048Z" fill="#B92025"></path><path d="M9.69349 0C10.0371 0.5216 9.86649 1.0928 9.83141 1.6456C9.82663 1.72 9.63769 1.8352 9.53405 1.8352C9.4304 1.8352 9.24146 1.72 9.23668 1.6456C9.2008 1.0928 9.03099 0.5216 9.3746 0H9.69349Z" fill="#B92025"></path><path d="M13.8505 6.77999C13.5722 7.08959 13.3705 7.36719 13.1162 7.58319C12.8571 7.80239 12.8372 8.02239 13.0142 8.26799C13.0843 8.36559 13.2238 8.45279 13.3418 8.46799C13.577 8.49919 13.8194 8.47519 14.0585 8.47919C14.4253 8.48559 14.631 8.66719 14.6373 9.04319C14.6429 9.41679 14.6445 9.78959 14.6373 10.1632C14.6294 10.5368 14.4253 10.7208 14.0562 10.724C13.8704 10.7256 13.6838 10.7288 13.4981 10.724C13.2693 10.7184 13.0803 10.7112 12.9647 11C12.8507 11.2832 12.9337 11.4288 13.125 11.616C13.9445 12.4208 13.9398 12.4344 13.125 13.2464C12.3652 14.004 12.3349 14.0096 11.5831 13.2376C11.3671 13.016 11.1662 12.8536 10.88 13.0848C10.7835 13.1632 10.6807 13.2888 10.6655 13.4032C10.6328 13.652 10.6599 13.9088 10.6528 14.1616C10.6432 14.5128 10.459 14.708 10.1075 14.7176C9.73595 14.7272 9.36364 14.7248 8.99133 14.7192C8.62221 14.7144 8.42609 14.5232 8.41732 14.1496C8.41254 13.9632 8.40855 13.776 8.41732 13.5896C8.42848 13.34 8.41732 13.1552 8.11676 13.0288C7.81142 12.9008 7.68307 13.044 7.51087 13.2184C6.72081 14.0152 6.71363 14.0136 5.91002 13.2096C5.14308 12.4424 5.14069 12.412 5.92597 11.6328C6.10215 11.4584 6.23848 11.328 6.1189 11.0248C5.99851 10.7192 5.80957 10.7208 5.56163 10.7216C4.43115 10.7248 4.43115 10.7216 4.43115 9.59039C4.43115 8.48479 4.43673 8.47839 5.5425 8.47839C5.78087 8.47839 5.98097 8.50079 6.11252 8.19439C6.25044 7.87359 6.09418 7.73439 5.91241 7.55279C5.14229 6.78639 5.14388 6.76559 5.89567 6.00639C6.71124 5.18399 6.71523 5.17999 7.54674 6.02479C7.72612 6.20719 7.87201 6.26639 8.13032 6.16079C8.38224 6.05759 8.41971 5.91279 8.41971 5.67679C8.41971 4.47839 8.42529 4.47839 9.60121 4.47839C10.6352 4.47839 10.652 4.49839 10.6575 5.56959C10.6583 5.79359 10.5826 6.02879 10.9143 6.15279C11.1861 6.25439 11.34 6.21359 11.5329 6.01599C12.3517 5.17599 12.3604 5.17839 13.1816 6.01599C13.3976 6.23679 13.5906 6.48079 13.8513 6.77919L13.8505 6.77999ZM6.13165 6.76639C6.24247 6.88479 6.30465 6.97359 6.38756 7.03599C6.93287 7.44319 7.18081 7.90719 6.71602 8.53839C6.6642 8.60879 6.65543 8.71359 6.63072 8.80319C6.55737 9.07439 6.38278 9.19359 6.10295 9.18479C5.78964 9.17519 5.47633 9.18239 5.15823 9.18239V10.016C5.48749 10.016 5.79442 9.98639 6.09179 10.0272C6.26399 10.0512 6.54143 10.168 6.56136 10.28C6.64188 10.7376 7.14414 11.084 6.91693 11.6104C6.88185 11.6912 6.79973 11.7552 6.72878 11.8144C6.51592 11.9928 6.29748 12.1656 6.09657 12.328C6.36126 12.608 6.53824 12.7952 6.78379 13.0544C7.011 12.7928 7.19995 12.5312 7.43274 12.316C7.95174 11.836 8.31049 12.5096 8.76731 12.548C8.89566 12.5592 9.02402 12.8272 9.11012 12.9984C9.15795 13.0944 9.11968 13.2336 9.11968 13.3536C9.11968 13.5624 9.11968 13.7704 9.11968 13.992H9.94881C9.94881 13.6552 9.94084 13.3384 9.9504 13.0224C9.96316 12.6032 11.1773 11.98 11.5281 12.2112C11.6047 12.2616 11.6653 12.3368 11.7322 12.4008C11.9371 12.5992 12.142 12.7992 12.3182 12.9704C12.543 12.7704 12.728 12.6056 12.9217 12.4336C12.5629 11.9128 11.8773 11.6864 12.264 10.7312C12.6522 9.77279 13.3076 10.1096 13.9015 9.98799V9.17919C13.5491 9.17919 13.2294 9.19759 12.9137 9.17519C12.2544 9.12879 12.4449 8.45599 12.1795 8.11439C12.0886 7.99759 12.1125 7.73599 12.1723 7.57279C12.2265 7.42479 12.3891 7.30639 12.5247 7.20239C12.6817 7.08159 12.8611 6.99039 13.0309 6.88639L12.8874 6.74959C12.7208 6.56399 12.5534 6.37919 12.3676 6.17359C12.2297 6.30559 12.1253 6.40479 12.0216 6.50559C11.3974 7.11039 11.4699 7.24879 10.6568 6.79199C10.5882 6.75359 10.5085 6.73039 10.4311 6.71599C10.0716 6.64639 9.91532 6.43919 9.94323 6.06639C9.96475 5.78079 9.94721 5.49279 9.94721 5.21279H9.11809C9.11809 5.56159 9.12925 5.87999 9.1157 6.19759C9.08779 6.85519 8.43406 6.67119 8.10162 6.92159C7.96928 7.02079 7.703 7.01039 7.52522 6.95679C7.37853 6.91279 7.25974 6.74159 7.15211 6.60879C7.02695 6.45359 6.92649 6.27839 6.81249 6.10799C6.51512 6.39439 6.33495 6.56799 6.13006 6.76479L6.13165 6.76639Z" fill="#B92025"></path><path d="M10.3161 2.55122C11.5765 2.71762 12.64 3.11682 13.5832 3.80002C15.1999 4.97202 16.1845 6.54322 16.4883 8.53202C16.5265 8.78162 16.5616 9.04962 16.2379 9.10562C15.8824 9.16802 15.8441 8.87602 15.7995 8.61922C15.4064 6.35122 14.1827 4.70722 12.0883 3.76082C11.551 3.51842 10.9403 3.44562 10.3775 3.25282C10.23 3.20242 10.0674 3.00882 10.0418 2.85842C10.0259 2.76082 10.2459 2.62322 10.3169 2.54962L10.3161 2.55122Z" fill="#B92025"></path><path d="M3.86258 4.26478C3.74618 4.20478 3.65051 4.17918 3.58753 4.11918C3.31807 3.86238 3.03505 3.61438 2.80704 3.32238C2.72333 3.21518 2.77914 2.99838 2.77116 2.83118C2.93699 2.83038 3.15782 2.76078 3.25987 2.84158C3.55963 3.07838 3.82431 3.36558 4.07703 3.65518C4.14719 3.73598 4.1735 3.91198 4.13682 4.01358C4.10015 4.11598 3.95984 4.18078 3.86258 4.26398V4.26478Z" fill="#B92025"></path><path d="M15.1978 4.2536C15.1165 4.1904 14.9826 4.1384 14.9475 4.0472C14.9068 3.9416 14.9044 3.76 14.969 3.6856C15.2393 3.376 15.5271 3.0776 15.8412 2.8136C15.9265 2.7416 16.1704 2.748 16.2565 2.82C16.3411 2.8912 16.3905 3.1528 16.3291 3.2256C16.0493 3.56 15.7272 3.86 15.4139 4.1664C15.3708 4.208 15.2943 4.216 15.197 4.2536H15.1978Z" fill="#B92025"></path><path d="M4.22125 15.2928C4.15508 15.4112 4.12 15.5152 4.05144 15.5888C3.80509 15.8504 3.56672 16.1248 3.28529 16.3432C3.17448 16.4296 2.91936 16.4504 2.80297 16.38C2.59648 16.2552 2.64033 16.0352 2.80297 15.868C3.06207 15.6008 3.31639 15.3272 3.59861 15.0872C3.6863 15.0128 3.86967 15.0008 3.99085 15.032C4.07934 15.0544 4.13913 15.1944 4.22125 15.2936V15.2928Z" fill="#B92025"></path><path d="M16.0867 16.5216C15.9663 16.4584 15.8587 16.428 15.787 16.36C15.5175 16.1032 15.2353 15.8536 15.0105 15.5608C14.9307 15.4576 14.9985 15.2392 14.9993 15.0728C15.1651 15.08 15.382 15.0224 15.488 15.1064C15.7782 15.3344 16.0357 15.6104 16.2757 15.8936C16.3522 15.9832 16.3697 16.164 16.3426 16.2872C16.3235 16.376 16.184 16.4376 16.0867 16.5224V16.5216Z" fill="#B92025"></path><path d="M0.873935 9.93998C0.688976 9.93998 0.491262 9.98078 0.323046 9.92718C0.188313 9.88398 0.00574689 9.73038 0.000166251 9.61758C-0.00621162 9.50558 0.172369 9.29198 0.285576 9.28078C0.690571 9.23998 1.10513 9.24078 1.51013 9.28238C1.62015 9.29358 1.79315 9.50958 1.78597 9.62238C1.7788 9.73518 1.59782 9.88958 1.46548 9.92798C1.28212 9.98078 1.07324 9.94078 0.874732 9.94078L0.873935 9.93998Z" fill="#B92025"></path><path d="M18.1648 9.9368C17.967 9.9368 17.755 9.9792 17.5748 9.9224C17.448 9.8824 17.299 9.716 17.2814 9.5896C17.2687 9.496 17.4456 9.2904 17.5501 9.2824C17.9694 9.2472 18.3952 9.248 18.8137 9.2864C18.9157 9.296 19.0744 9.4984 19.072 9.6096C19.0696 9.72 18.9134 9.8888 18.7954 9.92C18.5976 9.972 18.3768 9.9344 18.1655 9.9344C18.1655 9.9352 18.1655 9.9368 18.1655 9.9376L18.1648 9.9368Z" fill="#B92025"></path><path d="M9.52377 7.73038C10.5673 7.72398 11.3997 8.55438 11.3997 9.60078C11.3997 10.6408 10.5546 11.488 9.52456 11.48C8.5049 11.472 7.68056 10.6472 7.6686 9.62078C7.65585 8.57678 8.48098 7.73598 9.52377 7.73038ZM10.7124 9.60398C10.7148 8.97598 10.1767 8.42958 9.54768 8.42158C8.91946 8.41358 8.37097 8.94638 8.35662 9.57838C8.34147 10.2208 8.89953 10.7872 9.54131 10.7824C10.1703 10.7776 10.71 10.2344 10.7124 9.60478V9.60398Z" fill="#B92025"></path></g><defs><clipPath id="clip0_484_3391"><rect width="19.0714" height="24" fill="white"></rect></clipPath></defs></svg>