<svg xmlns="http://www.w3.org/2000/svg" width="64" height="64" viewBox="0 0 64 64" fill="none"><g clip-path="url(#clip0_194_621)"><path d="M5.33337 21.3334C5.33337 19.2116 6.17623 17.1768 7.67652 15.6765C9.17681 14.1762 11.2116 13.3334 13.3334 13.3334H18.6667C20.7884 13.3334 22.8233 14.1762 24.3236 15.6765C25.8239 17.1768 26.6667 19.2116 26.6667 21.3334V24C26.6667 40 21.2587 50.6667 8.00004 50.6667C18.6667 40.1014 16 34.6667 16 34.6667H13.3334C11.2116 34.6667 9.17681 33.8239 7.67652 32.3236C6.17623 30.8233 5.33337 28.7884 5.33337 26.6667L5.33337 21.3334Z" stroke="#B92025" stroke-width="2" stroke-miterlimit="10" stroke-linejoin="round"></path><path d="M37.3334 21.3334C37.3334 19.2116 38.1762 17.1768 39.6765 15.6765C41.1768 14.1762 43.2116 13.3334 45.3334 13.3334H50.6667C52.7884 13.3334 54.8233 14.1762 56.3236 15.6765C57.8239 17.1768 58.6667 19.2116 58.6667 21.3334V24C58.6667 40 53.2587 50.6667 40 50.6667C50.6667 40.1014 48 34.6667 48 34.6667H45.3334C43.2116 34.6667 41.1768 33.8239 39.6765 32.3236C38.1762 30.8233 37.3334 28.7884 37.3334 26.6667V21.3334Z" stroke="#B92025" stroke-width="2" stroke-miterlimit="10" stroke-linejoin="round"></path></g><defs><clipPath id="clip0_194_621"><rect width="64" height="64" fill="white"></rect></clipPath></defs></svg>