<svg xmlns="http://www.w3.org/2000/svg" width="20" height="20" viewBox="0 0 20 20" fill="none"><circle cx="10" cy="10" r="10" fill="#25D366"></circle><path d="M5.26909 15L5.7747 12.6525C5.12484 11.6275 4.87133 10.4006 5.06173 9.202C5.25212 8.00338 5.87335 6.91542 6.80884 6.14225C7.74433 5.36908 8.92981 4.96383 10.1428 5.00254C11.3559 5.04124 12.5131 5.52125 13.3974 6.35249C14.2817 7.18373 14.8323 8.30908 14.9459 9.5174C15.0595 10.7257 14.7283 11.934 14.0144 12.9154C13.3005 13.8969 12.253 14.5842 11.0684 14.8483C9.88387 15.1124 8.64365 14.9352 7.58045 14.3499L5.26909 15Z" fill="#25D366" stroke="white"></path><path d="M11.9504 10.6663C11.8421 10.5941 11.7337 10.5579 11.6254 10.7024L11.192 11.2802C11.0837 11.3525 11.0114 11.3886 10.867 11.3164C10.3252 11.0274 9.56682 10.7024 8.91675 9.61896C8.88064 9.4745 8.95287 9.40227 9.0251 9.33004L9.35013 8.82443C9.42236 8.7522 9.38625 8.67997 9.35013 8.60774L8.91675 7.5604C8.80841 7.27148 8.70006 7.3076 8.59172 7.3076H8.3028C8.23057 7.3076 8.08611 7.34371 7.94165 7.48817C7.14712 8.2827 7.47215 9.40227 8.04999 10.1246C8.15834 10.269 8.88064 11.5692 10.4336 12.2554C11.5893 12.761 11.8421 12.6887 12.1671 12.6165C12.5644 12.5804 12.9616 12.2554 13.1422 11.9303C13.1783 11.822 13.3589 11.3525 13.2144 11.2802" fill="white"></path></svg>