<svg xmlns="http://www.w3.org/2000/svg" width="20" height="20" viewBox="0 0 20 20" fill="none"><g clip-path="url(#clip0_2022_55)"><path d="M19.9264 10C19.9264 15.5111 15.4853 20 9.99996 20C4.51466 20 0.0734863 15.5111 0.0734863 10C0.0734863 4.47407 4.51466 0 9.99996 0C15.4853 0 19.9264 4.47407 19.9264 10Z" fill="#DA0000"></path><path fill-rule="evenodd" clip-rule="evenodd" d="M16.6176 10.0002C16.6176 11.4421 16.5245 12.5088 16.3382 13.2002C16.1911 13.7779 15.7353 14.2224 15.1764 14.3853C14.4804 14.573 12.7549 14.6668 9.99997 14.6668C7.24507 14.6668 5.51957 14.573 4.8235 14.3853C4.26468 14.2224 3.80879 13.7779 3.66174 13.2002C3.47547 12.5088 3.38232 11.4421 3.38232 10.0002C3.38232 8.54831 3.47547 7.47671 3.66174 6.78535C3.80879 6.20757 4.26468 5.76313 4.8235 5.60016C5.51957 5.42238 7.24507 5.3335 9.99997 5.3335C12.7549 5.3335 14.4804 5.42238 15.1764 5.60016C15.7353 5.76313 16.1911 6.20757 16.3382 6.78535C16.5245 7.47671 16.6176 8.54831 16.6176 10.0002ZM12.1176 10.0002L8.67644 8.00016V12.0002L12.1176 10.0002Z" fill="white"></path></g><defs><clipPath id="clip0_2022_55"><rect width="20" height="20" fill="white"></rect></clipPath></defs></svg>